<svg xmlns="http://www.w3.org/2000/svg" width="512" height="512" viewBox="0 0 192 192">
  <defs>
    <linearGradient id="bg" x1="0%" y1="0%" x2="100%" y2="100%">
      <stop offset="0%" stop-color="#141619"/>
      <stop offset="100%" stop-color="#0c0d10"/>
    </linearGradient>
    <radialGradient id="glow" cx="50%" cy="44%" r="70%">
      <stop offset="0%"   stop-color="rgba(74,143,212,0.55)"/>
      <stop offset="60%"  stop-color="rgba(74,143,212,0.18)"/>
      <stop offset="100%" stop-color="rgba(74,143,212,0.03)"/>
    </radialGradient>
    <linearGradient id="sheen" x1="0%" y1="0%" x2="0%" y2="100%">
      <stop offset="0%"   stop-color="rgba(255,255,255,0.10)"/>
      <stop offset="50%"  stop-color="rgba(255,255,255,0.02)"/>
      <stop offset="100%" stop-color="rgba(255,255,255,0)"/>
    </linearGradient>
  </defs>

  <!-- Background -->
  <rect width="192" height="192" rx="38" fill="url(#bg)"/>
  <!-- Full-icon smooth glow -->
  <rect width="192" height="192" rx="38" fill="url(#glow)"/>
  <!-- Glass sheen -->
  <rect width="192" height="192" rx="38" fill="url(#sheen)"/>

  <path fill-rule="evenodd"
        fill="rgba(255,255,255,0.92)"
        d="M 89,23
           Q 96,16  103,23
           L 158,72
           Q 162,76  156,76
           L 147,76
           Q 142,76  142,81
           L 142,124
           Q 142,132  134,132
           L 58,132
           Q 50,132   50,124
           L 50,81
           Q 50,76    45,76
           L 36,76
           Q 30,76    34,72
           L 89,23 Z
           M 79,132 L 79,115
           A 17,22 0 0 1 113,115
           L 113,132 Z"/>

  <!-- Text -->
  <text x="96" y="156" font-family="system-ui,-apple-system,sans-serif" font-size="16" font-weight="600" fill="rgba(255,255,255,0.90)" text-anchor="middle" letter-spacing="-0.2">Home</text>
  <text x="96" y="175" font-family="system-ui,-apple-system,sans-serif" font-size="16" font-weight="600" fill="rgba(255,255,255,0.90)" text-anchor="middle" letter-spacing="-0.2">Assistant</text>

  <!-- Border -->
  <rect x="0.5" y="0.5" width="191" height="191" rx="37.5" fill="none" stroke="rgba(255,255,255,0.09)" stroke-width="1"/>
</svg>
